<svg
	width="48"
	height="42"
	viewBox="0 0 48 42"
	fill="none"
	xmlns="http://www.w3.org/2000/svg"
>
	<mask
		id="mask0_16_9"
		style="mask-type: luminance"
		maskUnits="userSpaceOnUse"
		x="0"
		y="0"
		width="48"
		height="42"
	>
		<path d="M47.6273 0H0V41.674H47.6273V0Z" fill="white" />
	</mask>
	<g mask="url(#mask0_16_9)">
		<path
			d="M35.7217 41.674V38.6973C35.7217 38.3063 35.6446 37.9192 35.4951 37.558C35.3455 37.197 35.1263 36.8689 34.8499 36.5923C34.5733 36.3159 34.2451 36.0967 33.8841 35.9471C33.5229 35.7975 33.1358 35.7205 32.7449 35.7205H20.8373C16.8899 35.7205 13.1042 34.1524 10.3129 31.3612C7.52171 28.57 5.9536 24.7844 5.95353 20.837C5.95353 18.8824 6.33851 16.947 7.0865 15.1413C7.83448 13.3355 8.93081 11.6948 10.3129 10.3127C11.695 8.93062 13.3357 7.83433 15.1415 7.08637C16.9473 6.33841 18.8827 5.95347 20.8373 5.95349H32.744C33.1349 5.9536 33.5223 5.8767 33.8835 5.72717C34.2447 5.57761 34.5731 5.35837 34.8494 5.08194C35.126 4.8055 35.3453 4.47731 35.4951 4.1161C35.6446 3.75489 35.7217 3.36774 35.7217 2.97675V0H20.8379C18.1016 -1.57051e-10 15.3921 0.538966 12.864 1.58613C10.3359 2.63328 8.0389 4.16814 6.10404 6.10302C4.16916 8.03793 2.63433 10.335 1.5872 12.8631C0.540069 15.3911 0.00113035 18.1007 0.00115967 20.837C0.00115967 26.3632 2.19644 31.6633 6.10409 35.5709C10.0117 39.4786 15.3117 41.674 20.8379 41.674H35.7217Z"
			fill="url(#paint0_linear_16_9)"
		/>
		<path
			d="M11.9067 20.837C11.9067 23.2054 12.8476 25.4767 14.5222 27.1513C16.1969 28.826 18.4682 29.7668 20.8365 29.7668H35.7214C37.3004 29.7668 38.8144 30.3941 39.9309 31.5106C41.0473 32.627 41.6746 34.1413 41.6746 35.7203V41.6738H47.6281V35.7205C47.6281 32.5627 46.3737 29.5342 44.1408 27.3011C41.9077 25.0682 38.8792 23.8137 35.7214 23.8137H20.837C20.0475 23.8137 19.2904 23.5001 18.7321 22.942C18.1738 22.3836 17.8602 21.6265 17.8602 20.837C17.8602 20.0475 18.1738 19.2904 18.7321 18.7321C19.2904 18.1739 20.0475 17.8603 20.837 17.8603H35.7214C38.8792 17.8603 41.9077 16.6058 44.1408 14.3728C46.3737 12.1399 47.6281 9.11136 47.6281 5.95349V0H41.6738V5.95349C41.6738 7.53223 41.0467 9.04635 39.9304 10.1628C38.8142 11.2792 37.3002 11.9065 35.7214 11.9068H20.837C19.6642 11.9067 18.503 12.1376 17.4195 12.5864C16.336 13.0352 15.3515 13.693 14.5222 14.5222C13.693 15.3515 13.0352 16.336 12.5864 17.4195C12.1376 18.503 11.9067 19.6642 11.9067 20.837Z"
			fill="url(#paint1_linear_16_9)"
		/>
	</g>
	<defs>
		<linearGradient
			id="paint0_linear_16_9"
			x1="5.39495"
			y1="20.837"
			x2="51.2244"
			y2="20.837"
			gradientUnits="userSpaceOnUse"
		>
			<stop stop-color="#F54A48" />
			<stop offset="1" stop-color="#FA982F" />
		</linearGradient>
		<linearGradient
			id="paint1_linear_16_9"
			x1="5.36973"
			y1="20.8369"
			x2="51.236"
			y2="20.8369"
			gradientUnits="userSpaceOnUse"
		>
			<stop stop-color="#F54A48" />
			<stop offset="1" stop-color="#FA982F" />
		</linearGradient>
	</defs>
</svg>
